<svg xmlns="http://www.w3.org/2000/svg" width="70" height="35" fill="#FFFFFF">
<path d="M0 34.9668C0.235334 34.6346 0.434111 34.3556 0.632888 34.0766C1.61992 32.6904 2.59552 31.2954 3.60083 29.9225C3.91157 29.4973 4.08064 29.0567 4.16289 28.543C4.82777 24.3512 5.5132 20.1639 6.19179 15.9743C6.78126 12.3428 7.37303 8.71346 7.94879 5.07972C7.98307 4.86714 7.93509 4.61027 7.83912 4.4132C7.18567 3.06687 6.50709 1.73384 5.83993 0.394154C5.78738 0.285651 5.74168 0.174934 5.67543 0.0265722C5.84907 0.0199291 5.98159 0.0088574 6.11411 0.0088574C10.1399 0.0088574 14.1634 0.0155004 18.1869 0C18.5502 0 18.6828 0.115146 18.7879 0.434012C20.6111 6.02303 22.4481 11.6076 24.2828 17.1922C24.3102 17.2719 24.3422 17.3516 24.445 17.4358C24.5364 16.8888 24.6323 16.3419 24.7215 15.795C25.3475 11.9464 25.9712 8.09566 26.595 4.24712C26.8006 2.97166 27.0245 1.69841 27.2027 0.420726C27.253 0.0620018 27.4038 0.00221435 27.7374 0.0044287C29.8188 0.0177148 31.9003 0.0110717 33.9817 0.0110717C45.1635 0.0110717 56.3453 0.0110717 67.527 0.0110717H68C67.9269 0.159433 67.8812 0.265722 67.8241 0.367582C66.0488 3.48981 64.2712 6.60983 62.5028 9.73649C62.3794 9.95571 62.2446 10.0487 61.975 10.0465C60.3505 10.0332 58.726 10.0399 57.1015 10.0399H56.6697C56.4778 11.2555 56.2927 12.4314 56.1077 13.6072C55.2783 18.8818 54.4512 24.1563 53.6218 29.4287C53.5807 29.6966 53.583 29.9779 53.4961 30.2303C53.2791 30.8547 53.4961 31.3508 53.8548 31.8667C54.4992 32.7945 55.0864 33.7578 55.6964 34.7077C55.7421 34.7786 55.7786 34.8539 55.8403 34.9646H42.4766C43.7789 26.6585 45.0767 18.3747 46.3813 10.0642H36.006C35.8187 11.2467 35.6313 12.4203 35.4371 13.647H42.9632C42.4674 16.7073 41.9808 19.7144 41.4895 22.7458H33.9612C33.294 26.8313 32.6314 30.8924 31.962 34.9911H31.4936C28.3451 34.9911 25.199 34.9845 22.0505 35C21.7124 35 21.573 34.9048 21.4656 34.5948C19.5921 29.1253 17.7049 23.6603 15.8199 18.1931C15.7879 18.1023 15.7536 18.0115 15.6942 17.8499C14.7758 23.6027 13.8687 29.2803 12.9593 34.969H0V34.9668Z" fill="#FFFFFF">
</path>
</svg>